<?xml version="1.0" encoding="utf-8"?>
<!-- Generator: Adobe Illustrator 25.0.1, SVG Export Plug-In . SVG Version: 6.00 Build 0)  -->
<svg version="1.1" id="Layer_1" xmlns="http://www.w3.org/2000/svg" xmlns:xlink="http://www.w3.org/1999/xlink" x="0px" y="0px"
	 viewBox="0 0 225 110" style="enable-background:new 0 0 225 110;" xml:space="preserve">
<style type="text/css">
	.st0{fill:#F9F9F9;}
</style>
<g id="ftrqZp.tif">
	<g>
		<path class="st0" d="M19.2,31.6c0.9,0.2,1.7,0.6,2.3,1.3c0.1,0.2,0.3,0.2,0.5,0.2c0.8,0,1.6-0.1,2.3,0c0.8,0.1,1.4,0.5,1.8,1.2
			c0.2,0.3,0.4,0.4,0.7,0.4c1.6,0,3.2,0,4.8,0c2.4,0,3.7,1.3,3.7,3.7c0,3.1,0,6.2,0,9.3c0,8.7,0,17.5,0,26.2c0,0.9-0.1,1.8-0.7,2.6
			c-0.6,0.7-1.4,1.2-2.4,1.2c-1.7,0-3.4,0-5.2,0c-7.3,0-14.6,0-21.9,0c-1.6,0-2.8-0.9-3.2-2.4c-0.1-0.4-0.1-0.8-0.1-1.2
			c0-6.6,0-13.1,0-19.7c0-5.3,0-10.5,0-15.8c0-0.5,0-1,0.1-1.5c0.4-1.5,1.6-2.4,3.2-2.4c1.7,0,3.4,0,5.1,0c0.3,0,0.6-0.1,0.8-0.4
			c0.5-0.9,1.3-1.2,2.2-1.2c0.6,0,1.2,0,1.8,0c0.2,0,0.4,0,0.5-0.2c0.6-0.7,1.4-1.1,2.3-1.3C18.2,31.6,18.7,31.6,19.2,31.6z
			 M30.4,56.2c0-5.4,0-10.8,0-16.2c0-0.5-0.1-0.6-0.6-0.6c-1.2,0-2.4,0-3.6,0c-0.2,0-0.4,0-0.5,0.2c-0.5,0.5-1.2,0.6-1.9,0.6
			c-3.5,0-7,0-10.6,0c-0.6,0-1.3-0.1-1.8-0.5c-0.2-0.2-0.5-0.3-0.8-0.3c-1.2,0-2.3,0-3.5,0c-0.6,0-0.6,0-0.6,0.6
			c0,10.7,0,21.5,0,32.2c0,0.6,0,0.6,0.6,0.6c7.6,0,15.1,0,22.7,0c0.6,0,0.6,0,0.6-0.6C30.4,66.9,30.4,61.6,30.4,56.2z M33.6,56.2
			c0-6,0-12,0-18c0-1.5-0.9-1.9-1.9-1.9c-1.4,0-2.8,0-4.2,0c-1,0-1,0-1,1c0,0.4,0.2,0.6,0.6,0.6c1.3,0,2.6,0,3.9,0
			c0.8,0,1.1,0.3,1.1,1.1c0,11.5,0,23,0,34.5c0,0.8-0.3,1.1-1.1,1.1c-8.3,0-16.6,0-24.9,0c-0.9,0-1.1-0.3-1.1-1.1
			C5,61.9,5,50.5,5,39c0-0.9,0.3-1.2,1.2-1.2c1.1,0,2.2,0,3.3,0c1.3,0,1.1,0.2,1.1-1.1c0-0.4-0.1-0.5-0.5-0.5c-1.5,0-2.9,0-4.4,0
			c-1.8,0-2.3,0.5-2.3,2.3c0,11.9,0,23.8,0,35.6c0,1.3,0.6,1.9,1.9,1.9c3,0,6,0,9,0c5.9,0,11.7,0,17.6,0c0.5,0,0.9-0.1,1.3-0.4
			c0.5-0.4,0.5-0.9,0.5-1.5C33.6,68.2,33.6,62.2,33.6,56.2z M18.5,38.7c1.8,0,3.6,0,5.4,0c0.6,0,0.9-0.3,0.9-0.9c0-0.7,0-1.4,0-2.1
			c0-0.6-0.3-0.9-1-0.9c-0.8,0-1.6,0-2.4,0c-0.5,0-0.8-0.2-1.1-0.5c-1.1-1.4-2.8-1.4-3.9,0c-0.3,0.4-0.6,0.6-1.1,0.5
			c-0.8,0-1.6,0-2.3,0c-0.7,0-1,0.3-1,1c0,0.6,0,1.3,0,1.9c0,0.8,0.3,1,1.1,1.1C14.9,38.7,16.7,38.7,18.5,38.7z"/>
		<path class="st0" d="M23.2,67.3c-2.6,0-4.8-2.2-4.8-4.8c0-2.6,2.2-4.8,4.8-4.8c2.6,0,4.8,2.1,4.8,4.7C28,65.2,25.9,67.3,23.2,67.3
			z M24.1,61c0,0.3,0,0.7,0,1c0,0.2,0,0.4,0.2,0.5c0.4,0.6,0.9,1.1,1.3,1.7c0.2,0.3,0.3,0.2,0.5,0c0.3-0.5,0.4-1,0.4-1.5
			c0.1-1.3-0.8-2.6-2-3.1c-0.3-0.1-0.4-0.1-0.4,0.3C24.1,60.3,24.1,60.6,24.1,61z M23.2,65.8c0.3,0,0.6-0.1,0.8-0.1
			c0.3-0.1,0.4-0.2,0.2-0.4c-0.4-0.5-0.8-1-1.1-1.6c-0.1-0.2-0.3-0.3-0.5-0.3c-0.6,0-1.3,0-1.9,0c-0.3,0-0.4,0.1-0.3,0.4
			C20.8,64.9,22,65.7,23.2,65.8z M22.4,60.6c0-0.3,0-0.5,0-0.8c0-0.3-0.1-0.3-0.4-0.2c-0.8,0.3-1.4,0.9-1.8,1.8
			c-0.1,0.3-0.1,0.4,0.2,0.4c0.2,0,0.5,0,0.7,0C22.4,61.8,22.4,61.8,22.4,60.6z"/>
		<path class="st0" d="M20.6,53.8c2.1,0,4.2,0,6.3,0c0.2,0,0.5,0,0.7,0.1c0.4,0.1,0.5,0.4,0.6,0.7c0,0.4-0.2,0.6-0.5,0.7
			c-0.2,0.1-0.4,0.1-0.6,0.1c-4.3,0-8.5,0-12.8,0c-0.2,0-0.4,0-0.6-0.1c-0.4-0.1-0.5-0.4-0.5-0.7c0-0.3,0.2-0.6,0.5-0.7
			c0.2-0.1,0.5-0.1,0.7-0.1C16.3,53.8,18.4,53.8,20.6,53.8C20.6,53.8,20.6,53.8,20.6,53.8z"/>
		<path class="st0" d="M20.5,49.8c2.1,0,4.2,0,6.3,0c0.2,0,0.4,0,0.7,0.1c0.4,0.1,0.6,0.5,0.6,0.8c-0.1,0.4-0.3,0.6-0.7,0.7
			c-0.1,0-0.1,0-0.2,0c-1.9,0-3.8,0.1-5.8,0c-2.1,0-4.3,0-6.4,0c-0.4,0-0.8,0.1-1.3,0c-0.5-0.1-0.8-0.4-0.8-0.8
			c0-0.4,0.3-0.7,0.8-0.8c0.3,0,0.7,0,1,0C16.6,49.8,18.6,49.8,20.5,49.8C20.5,49.8,20.5,49.8,20.5,49.8z"/>
		<path class="st0" d="M20.5,47.4c-2.1,0-4.3,0-6.4,0c-0.1,0-0.3,0-0.4,0c-0.4,0-0.7-0.4-0.8-0.8c0-0.4,0.3-0.7,0.8-0.8
			c0.1,0,0.2,0,0.4,0c4.3,0,8.6,0,12.9,0c0.1,0,0.3,0,0.4,0c0.4,0.1,0.7,0.4,0.7,0.8c0,0.4-0.3,0.7-0.7,0.8c-0.1,0-0.3,0-0.4,0
			C24.8,47.4,22.6,47.4,20.5,47.4z"/>
		<path class="st0" d="M15.3,59.4c-0.5,0-1,0-1.4,0c-0.6,0-0.9-0.4-0.9-0.8c0-0.5,0.4-0.7,0.9-0.8c1,0,1.9-0.1,2.9,0
			c0.6,0,0.9,0.3,0.9,0.8c0,0.4-0.3,0.8-0.9,0.8C16.3,59.4,15.8,59.4,15.3,59.4C15.3,59.4,15.3,59.4,15.3,59.4z"/>
		<path class="st0" d="M15.3,67.3c-0.5,0-1,0-1.5,0c-0.5,0-0.8-0.3-0.8-0.8c0-0.4,0.3-0.8,0.8-0.8c1,0,2.1,0,3.1,0
			c0.5,0,0.8,0.4,0.8,0.8c0,0.4-0.4,0.8-0.9,0.8c-0.3,0-0.5,0-0.8,0C15.8,67.3,15.5,67.3,15.3,67.3C15.3,67.3,15.3,67.3,15.3,67.3z"
			/>
		<path class="st0" d="M14.9,61.8c0.4,0,0.8,0,1.2,0c0.5,0,0.8,0.4,0.8,0.8c0,0.4-0.3,0.8-0.8,0.8c-0.8,0-1.6,0-2.4,0
			c-0.5,0-0.8-0.4-0.8-0.8c0-0.4,0.3-0.8,0.8-0.8C14.1,61.8,14.5,61.8,14.9,61.8z"/>
		<path class="st0" d="M10.2,53.8c0.1,0,0.1,0,0.2,0c0.6,0,1,0.3,1,0.8c0,0.5-0.3,0.8-0.9,0.8c-0.3,0-0.5,0-0.8,0
			c-0.4-0.1-0.7-0.4-0.7-0.8c0-0.4,0.2-0.7,0.6-0.8C9.8,53.8,10,53.8,10.2,53.8C10.2,53.8,10.2,53.8,10.2,53.8z"/>
		<path class="st0" d="M10.1,61.8c0.1,0,0.3,0,0.4,0c0.4,0,0.7,0.3,0.8,0.7c0,0.4-0.3,0.8-0.7,0.8c-0.3,0-0.6,0-0.9,0
			c-0.4,0-0.8-0.4-0.8-0.8c0-0.4,0.3-0.7,0.7-0.8C9.8,61.8,10,61.8,10.1,61.8C10.1,61.8,10.1,61.8,10.1,61.8z"/>
		<path class="st0" d="M10.1,47.4c-0.8,0-1.1-0.2-1.1-0.8c0-0.5,0.4-0.8,1.2-0.8c0.1,0,0.3,0,0.4,0c0.5,0,0.8,0.4,0.8,0.8
			c0,0.4-0.3,0.7-0.8,0.8C10.4,47.4,10.2,47.4,10.1,47.4z"/>
		<path class="st0" d="M10.1,67.3c-0.1,0-0.2,0-0.3,0c-0.5,0-0.9-0.3-0.9-0.8c0-0.4,0.3-0.8,0.8-0.8c0.3,0,0.5,0,0.8,0
			c0.5,0.1,0.7,0.4,0.7,0.8c0,0.4-0.3,0.7-0.8,0.7C10.4,67.3,10.2,67.3,10.1,67.3z"/>
		<path class="st0" d="M10.1,51.4c-0.1,0-0.1,0-0.2,0c-0.6,0-1-0.3-1-0.8c0-0.5,0.4-0.8,1-0.8c0.2,0,0.5,0,0.7,0
			c0.5,0.1,0.8,0.4,0.7,0.8c0,0.4-0.3,0.7-0.8,0.7C10.4,51.4,10.2,51.4,10.1,51.4C10.1,51.4,10.1,51.4,10.1,51.4z"/>
		<path class="st0" d="M10.1,59.4c-0.2,0-0.5,0-0.7-0.1c-0.3-0.2-0.5-0.4-0.5-0.8c0.1-0.4,0.3-0.6,0.6-0.7c0.3,0,0.6,0,0.9,0
			c0.5,0,0.8,0.3,0.8,0.7c0,0.4-0.3,0.7-0.7,0.8C10.4,59.4,10.3,59.4,10.1,59.4z"/>
		<path class="st0" d="M19.3,35.5c0,0.4-0.3,0.8-0.8,0.8c-0.4,0-0.8-0.3-0.8-0.8c0-0.4,0.4-0.8,0.8-0.8
			C18.9,34.7,19.2,35.1,19.3,35.5z"/>
	</g>
</g>
<g>
	<path class="st0" d="M55.7,54.3c0-6.4,0-12.7,0-19.1c0-0.9,0-0.9,0.9-0.9c2.3,0,4.6,0,6.9,0c7.9,0,15.8,0,23.7,0c1,0,1,0,1,1
		c0,4.9,0,9.9,0,14.8c0,0.8,0,0.7-0.7,0.5c-0.8-0.3-1-0.8-1-1.6c0-3.9,0-7.8,0-11.7c0-1.3,0-1.3-1.3-1.3c-9,0-17.9,0-26.9,0
		c-0.9,0-0.9,0-0.9,0.9c0,11.7,0,23.4,0,35c0,0.8,0,0.8,0.8,0.8c9.2,0,18.3,0,27.5,0c0.9,0,0.8,0,0.8-0.9c0-0.9,0-1.8,0-2.7
		c0-0.5,0.2-0.7,0.6-0.9c1.1-0.4,1-0.5,1,0.7c0,1.6,0,3.1,0,4.7c0,0.6-0.1,0.8-0.7,0.8c-10.3,0-20.6,0-30.9,0
		c-0.8,0-0.8-0.1-0.8-0.8C55.7,67.1,55.7,60.7,55.7,54.3z"/>
	<path class="st0" d="M84,51c3.1,0.1,5.6,1.4,7.2,4.2c1.6,2.9,1.5,5.8-0.3,8.6c-0.4,0.6-0.4,0.9,0.1,1.3c0.2,0.1,0.4,0.4,0.5,0.6
		c0.4,0.5,0.8,0.7,1.5,0.5c0.9-0.3,1.7,0.2,2.4,0.8c1.9,1.9,3.8,3.8,5.6,5.6c1.1,1.1,1.1,2.8,0,3.8c-1,1-2.7,1-3.7,0
		c-2-1.9-3.9-3.9-5.9-5.9c-0.7-0.7-0.8-1.6-0.6-2.5c0.1-0.4,0-0.6-0.3-0.9c-0.3-0.3-0.7-0.6-1-1c-0.3-0.4-0.6-0.4-1.1-0.1
		c-2.6,1.7-5.4,2-8.2,0.7c-3-1.4-4.7-3.9-4.8-7.3C75.6,54.5,79.7,51,84,51z M77.4,59.3c0,3.7,2.8,6.6,6.5,6.6c3.7,0,6.5-2.8,6.6-6.5
		c0.1-3.5-2.7-6.7-6.5-6.7C80.1,52.7,77.3,55.9,77.4,59.3z M100.2,74.6c0-0.3-0.2-0.6-0.4-0.8c-0.6-0.6-1.1-1.1-1.7-1.7
		c-1.3-1.3-2.6-2.6-4-3.9c-0.6-0.6-1.4-0.5-1.7,0.3c-0.2,0.5,0,0.8,0.4,1.2c1.8,1.8,3.6,3.6,5.4,5.4c0.2,0.2,0.3,0.3,0.5,0.4
		C99.5,75.8,100.2,75.3,100.2,74.6z"/>
	<path class="st0" d="M67.9,54c-1.9,0-3.8,0-5.7,0c-0.7,0-0.7,0-0.7-0.9c0-0.8,0-0.8,0.7-0.8c3.8,0,7.6,0,11.5,0
		c0.7,0,0.8,0.1,0.8,0.8c0,0.8-0.1,0.8-0.8,0.8C71.7,54,69.8,54,67.9,54z"/>
	<path class="st0" d="M67.9,62.8c-1.9,0-3.8,0-5.7,0c-0.7,0-0.7,0-0.7-0.9c0-0.8,0-0.8,0.7-0.8c3.8,0,7.6,0,11.5,0
		c0.7,0,0.8,0.1,0.8,0.8c0,0.8,0,0.8-0.8,0.8C71.7,62.8,69.8,62.8,67.9,62.8z"/>
	<path class="st0" d="M68,56.7c1.9,0,3.8,0,5.8,0c0.7,0,0.7,0,0.7,1c0,0.5-0.2,0.7-0.7,0.7c-3.3,0-6.7,0-10,0c-0.6,0-1.2,0-1.8,0
		c-0.3,0-0.5-0.1-0.5-0.4c0-0.2,0-0.4,0-0.5c0-0.5,0.2-0.7,0.7-0.7C64,56.7,66,56.7,68,56.7C68,56.7,68,56.7,68,56.7z"/>
	<path class="st0" d="M67.9,67.1c-1.9,0-3.9,0-5.8,0c-0.5,0-0.7-0.1-0.7-0.6c0.1-0.4-0.2-1,0.6-1c3.9,0,7.9,0,11.8,0
		c0.4,0,0.6,0.2,0.6,0.6c0,0.2,0,0.3,0,0.5c0,0.4-0.1,0.6-0.5,0.6C71.9,67.1,69.9,67.1,67.9,67.1C67.9,67.1,67.9,67.1,67.9,67.1z"/>
	<path class="st0" d="M73,44.2c0-1.2,0-2.4,0-3.5c0-0.4,0.1-0.6,0.5-0.6c0.2,0,0.4,0,0.6,0c0.3,0,0.5,0.2,0.5,0.5c0,2.4,0,4.9,0,7.3
		c0,0.3-0.1,0.4-0.5,0.4c-1.1,0-1.1,0-1.1-1.2C73.1,46.2,73.1,45.2,73,44.2C73.1,44.2,73,44.2,73,44.2z"/>
	<path class="st0" d="M78.6,45.4c0,0.8,0,1.6,0,2.4c0,0.5-0.1,0.7-0.7,0.6c-1-0.1-1-0.1-1-1.1c0-1.4,0-2.9,0-4.3
		c0-0.6,0.3-0.7,0.8-0.7c0.5,0,0.9,0,0.9,0.7C78.6,43.8,78.6,44.6,78.6,45.4z"/>
	<path class="st0" d="M66.9,45.6c0,0.8,0,1.5,0,2.3c0,0.3-0.1,0.5-0.5,0.5c-1.3,0-1.1,0.1-1.1-1.1c0-1.3,0-2.6,0-3.8
		c0-0.7,0.4-0.7,0.8-0.7c0.5,0,0.9,0,0.8,0.7C66.8,44.2,66.9,44.9,66.9,45.6C66.9,45.6,66.9,45.6,66.9,45.6z"/>
	<path class="st0" d="M82.5,46.3c0,0.5,0,1.1,0,1.6c0,0.3-0.1,0.5-0.5,0.5c-1.3,0-1.2,0.3-1.2-1.2c0-0.7,0-1.5,0-2.2
		c0-0.5,0.2-0.8,0.8-0.8c0.2,0,0.3,0,0.5,0c0.3,0,0.5,0.2,0.5,0.5C82.5,45.2,82.5,45.8,82.5,46.3z"/>
	<path class="st0" d="M61.3,46.5c0-0.5,0-1,0-1.4c0-0.3,0.1-0.5,0.5-0.5c1.3,0,1.2-0.2,1.2,1.2c0,0.7,0,1.4,0,2.1
		c0,0.4-0.1,0.6-0.5,0.6c-1.3,0-1.2,0.2-1.2-1.1C61.3,47,61.3,46.7,61.3,46.5C61.3,46.5,61.3,46.5,61.3,46.5z"/>
	<path class="st0" d="M69.1,46.8c0-0.2,0-0.4,0-0.6c0-1,0-0.9,0.9-1c0.6,0,0.8,0.2,0.8,0.8c0,0.6,0,1.1,0,1.7c0,0.5-0.2,0.6-0.6,0.6
		c-1.1,0-1.1,0-1.1-1C69.1,47.2,69.1,47,69.1,46.8z"/>
	<path class="st0" d="M88.2,57.4c0,0.2-0.1,0.3-0.2,0.4c-1.5,1.5-2.9,2.9-4.4,4.4c-0.8,0.8-0.8,0.8-1.7,0c-0.6-0.6-1.3-1.3-1.9-1.9
		c-0.3-0.3-0.3-0.5,0-0.8c0.6-0.7,0.8-0.8,1.2-0.4c0.4,0.4,0.8,0.8,1.1,1.2c0.3,0.3,0.6,0.3,0.9,0c1.1-1.2,2.3-2.3,3.4-3.5
		c0.4-0.5,0.7-0.5,1.1,0C87.9,57,88.2,57.1,88.2,57.4z"/>
</g>
<g>
	<path class="st0" d="M160.2,62.1c-0.1,0.5-0.1,1.1-0.2,1.6c0,0.5-0.1,0.9-0.3,1.3c-0.2,0.3,0,0.4,0.2,0.4c0.8,0,1.5,0,2.3,0
		c1.1,0,1.8,0.8,1.9,1.9c0.1,0.9-0.6,1.8-1.5,2c-0.4,0.1-0.5,0.3-0.5,0.6c0,1.1,0,2.2,0,3.3c0,0.5-0.2,0.5-0.6,0.5
		c-0.4,0-0.6-0.1-0.6-0.5c0-1.1,0-2.2,0-3.3c0-0.4-0.1-0.6-0.6-0.6c-1.1,0-2.2,0-3.3,0c-0.4,0-0.5,0.1-0.5,0.5c0,1.1,0,2.2,0,3.3
		c0,0.5-0.2,0.6-0.6,0.6c-0.4,0-0.6-0.1-0.6-0.6c0-1.1,0-2.1,0-3.2c0-0.4-0.1-0.6-0.5-0.6c-1.1-0.2-1.8-1.2-1.6-2.4
		c0-0.2,0.2-0.4-0.2-0.4c-0.2,0-0.6-0.1-0.6,0.4c0,0.6,0,1.2,0,1.8c0,1.6,0,3.3,0,4.9c0,0.6,0,0.6-0.6,0.6c-7.3,0-14.5,0-21.8,0
		c-0.6,0-0.6,0-0.6-0.6c0-2.2,0-4.4,0-6.5c0-0.3-0.1-0.5-0.4-0.5c-0.3,0-0.4,0.1-0.4,0.4c0.2,1.4-0.4,2.1-1.7,2.4
		c-0.3,0.1-0.4,0.3-0.4,0.5c0,1.1,0,2.2,0,3.3c0,0.4-0.2,0.6-0.6,0.6c-0.4,0-0.6-0.1-0.6-0.6c0-1.1,0-2.2,0-3.3
		c0-0.4-0.1-0.5-0.5-0.5c-1.1,0-2.2,0-3.4,0c-0.4,0-0.5,0.1-0.5,0.5c0,1.1,0,2.2,0,3.3c0,0.4-0.1,0.6-0.6,0.6
		c-0.4,0-0.6-0.1-0.6-0.6c0-1.1,0-2.2,0-3.3c0-0.3-0.1-0.5-0.5-0.6c-0.8-0.2-1.4-0.9-1.5-1.6c-0.1-0.9,0.2-1.6,1-2
		c0.3-0.2,0.4-0.3,0.4-0.6c-0.1-0.5,0.1-1.1,0-1.6c0-0.2-0.1-0.4-0.3-0.5c-0.8-0.4-1.1-1.1-1.1-1.9c0-2.2,0-4.4,0-6.5
		c0-1.1,0.7-2,1.7-2.1c1.1-0.1,2,0.5,2.2,1.6c0.1,0.3,0.1,0.3,0.4,0.1c0.3-0.3,0.7-0.4,1-0.5c0.3-0.1,0.3-0.2,0.2-0.4
		c-1.2-1.9-0.9-4,0.8-5.4c1.1-0.9,2.4-1.1,3.7-0.6c0.5,0.2,0.5,0.2,0.5-0.4c0-0.7,0-1.4,0-2.1c0-0.3-0.1-0.4-0.4-0.4
		c-1.9-0.1-2.2-0.5-2.2-2.4c0-0.7,0-1.5,0-2.2c0-1.3,0.6-1.9,2-1.9c0.7,0,0.7,0,0.7-0.7c0-1.4-0.2-1.2,1.3-1.2c7.7,0,15.5,0,23.2,0
		c0.9,0,0.9,0,0.9,0.9c0,3.4,0,6.8,0,10.2c0,0.4,0.2,0.3,0.4,0.2c1.6-0.4,3.1,0,4.1,1.3c1.1,1.4,1.2,3.3,0.2,4.8
		c-0.2,0.3-0.1,0.4,0.2,0.5c0.3,0,0.6,0.2,0.9,0.4c0.3,0.2,0.4,0.2,0.5-0.2c0.4-1.5,2.3-2,3.4-0.9c0.3,0.3,0.5,0.8,0.5,1.3
		c0,2.3,0,4.6,0,6.9c0,1-0.5,1.7-1.3,1.9c-0.9,0.3-1.8,0-2.4-0.7C160.4,62.2,160.4,62.1,160.2,62.1z M141.2,54.6c3.6,0,7.3,0,10.9,0
		c0.6,0,0.8-0.4,0.5-0.9c0-0.1-0.1-0.2-0.2-0.2c-1.4-1.8-1.4-3.6,0-5.3c0.2-0.2,0.3-0.5,0.3-0.7c0-3.3,0-6.7,0-10
		c0-0.4-0.1-0.6-0.5-0.6c-7.3,0-14.6,0-21.9,0c-0.3,0-0.5,0-0.5,0.4c0,0.4,0.3,0.4,0.5,0.4c1,0,2,0,3,0c1.2,0,1.9,0.6,1.9,1.9
		c0,0.9,0,1.8,0,2.7c0,0.5,0,1.1-0.5,1.4c-0.8,0.5-1,1.1-0.9,2c0.1,0.5-0.6,0.8-1,0.6c-0.3-0.2-0.5-0.4-0.7-0.6
		c-0.4-0.4-0.9-0.8-1.3-1.2c-0.3-0.2-0.6-0.3-0.9-0.2c-0.3,0.1-0.2,0.4-0.2,0.6c0,0.9,0,1.9,0,2.8c0,0.3,0.1,0.6,0.3,0.9
		c0.6,0.8,0.8,1.8,0.7,2.8c-0.1,0.7-0.3,1.3-0.8,1.9c-0.3,0.4-0.3,0.8-0.1,1.2c0.1,0.3,0.5,0.2,0.8,0.2
		C134.1,54.7,137.6,54.6,141.2,54.6z M141,61.4c-3,0-6,0-9,0c-0.3,0-0.6,0-1,0c-0.3,0-0.4,0.1-0.4,0.4c0,0.2,0,0.4,0,0.5
		c0,0.3,0.1,0.4,0.4,0.4c0.4,0,0.7,0.1,1.1,0.1c1.5,0.1,2.4,0.8,2.8,2.2c0.7,2.2,1.4,4.4,2,6.6c0.1,0.3,0.2,0.7,0.1,1
		c-0.1,0.3,0.1,0.4,0.4,0.4c2.4,0,4.7,0,7.1,0c0.3,0,0.4-0.1,0.3-0.4c-0.1-0.3-0.1-0.6,0-0.9c0.7-2.3,1.4-4.7,2.1-7
		c0.4-1.3,1.4-1.9,2.8-2c0.4,0,0.7,0,1.1-0.1c0.1,0,0.3,0,0.3-0.1c0.1-0.3,0.1-0.7,0-1c-0.1-0.3-0.4-0.2-0.6-0.2
		C147.5,61.4,144.3,61.4,141,61.4z M126.5,54.9c0.7,0.8,1.4,1.5,2.1,2.2c0.2,0.3,0.5,0.4,0.8,0.3c1.2,0,2.3,0,3.5,0
		c1.2,0,2.1,1,2,2.1c-0.1,0.6-0.1,0.6,0.6,0.6c3.7,0,7.5,0,11.2,0c0.1,0,0.2,0,0.3,0c0.2,0,0.3-0.1,0.3-0.3
		c-0.2-1.6,0.6-2.4,2.2-2.4c0.8,0,1.7-0.1,2.5,0c0.8,0.1,1.5-0.2,2-0.8c0.5-0.6,1-1.1,1.6-1.7c-0.5-0.1-0.9-0.1-1.3-0.2
		c-0.3-0.1-0.4,0-0.4,0.3c0.1,0.8,0,0.8-0.8,0.8c-7.9,0-15.7,0-23.6,0c-0.9,0-0.9,0-1-0.9c0-0.1,0-0.1,0-0.2c0-0.1-0.1-0.2-0.2-0.2
		C127.7,54.8,127.1,54.8,126.5,54.9z M150.7,59.4c0,0.8,0,0.8,0.8,0.8c0.5,0,1,0,1.5,0c0.4,0,0.7-0.1,1.1-0.4
		c1.3-1.3,2.6-2.5,3.9-3.8c0.3-0.3,0.5-0.3,0.7,0c0.2,0.3,0.5,0.5,0.1,0.9c-0.8,0.7-1.4,1.5-2.2,2.1c-0.9,0.7-1.5,1.6-1.5,2.8
		c0,0.2,0,0.4-0.1,0.5c-0.1,0.4,0,0.6,0.4,0.8c0.9,0.4,1.8,0.9,2.6,1.4c0.6,0.3,0.7,0.3,0.7-0.3c0.2-1.6,0.3-3.2,0.5-4.8
		c0.1-1,0.2-2.1,0.3-3.1c0-0.7-0.2-1.1-0.8-1.4c-0.6-0.2-1.2-0.1-1.6,0.3c-0.7,0.7-1.4,1.3-2,2.1c-0.9,1.2-2.1,1.7-3.6,1.5
		C150.8,58.6,150.7,58.7,150.7,59.4z M129.6,60.2c0.1,0,0.3,0,0.4,0c1.1,0,1,0.2,1-1.1c0-0.3-0.2-0.4-0.5-0.4c-0.5,0-1.1,0-1.6,0
		c-0.3,0-0.6-0.1-0.8-0.3c-1-1-2-2.1-3-3.1c-0.5-0.6-1.2-0.7-1.8-0.4c-0.6,0.3-0.9,0.8-0.8,1.6c0.1,0.9,0.2,1.8,0.3,2.7
		c0.2,1.6,0.3,3.3,0.5,4.9c0,0.5,0.2,0.6,0.6,0.3c1-0.5,1.9-1,2.9-1.5c0.3-0.1,0.3-0.3,0.3-0.6c-0.1-0.5-0.2-1.1-0.3-1.7
		c-0.1-0.4-0.2-0.7-0.5-0.9c-1-1-2-1.9-3-2.9c-0.4-0.4-0.1-0.6,0.1-0.9c0.3-0.3,0.5-0.3,0.8,0c1.1,1.1,2.3,2.2,3.4,3.3
		C128.1,60,128.7,60.4,129.6,60.2z M132.5,44.3C132.5,44.2,132.5,44.2,132.5,44.3c0-0.4-0.1-0.8,0-1.1c0.2-0.4,0.6-0.1,1-0.2
		c0.3,0,0.5-0.2,0.5-0.6c0-1,0-1.9,0-2.9c0-0.6-0.1-0.7-0.7-0.7c-1.8,0-3.6,0-5.4,0c-0.5,0-0.7,0.1-0.7,0.7c0,0.9,0,1.8,0,2.7
		c0,0.7,0.1,0.8,0.7,0.8c0.9,0,1.8,0,2.7,0c0.3,0,0.6,0.1,0.8,0.3C131.7,43.7,132.1,44,132.5,44.3z M152.5,50.9
		c0,1.5,1.2,2.8,2.8,2.8c1.5,0,2.8-1.3,2.8-2.8c0-1.6-1.3-2.8-2.8-2.8C153.8,48.1,152.6,49.3,152.5,50.9z M129.5,50.9
		c0-1.6-1.3-2.8-2.8-2.8c-1.5,0-2.8,1.3-2.8,2.8c0,1.5,1.2,2.8,2.8,2.8C128.2,53.7,129.5,52.4,129.5,50.9z M124.9,65.3
		c0.5,0.2,1,0.1,1.5,0.1c1.6,0.1,3.2,0,4.8,0c0.4,0,0.6,0.1,0.8,0.5c0.4,1.3,0.9,2.5,1.4,3.8c0.4,1,0.4,1,1.6,1
		c0.4,0,0.5-0.1,0.4-0.5c-0.5-1.5-1-3.1-1.4-4.7c-0.4-1.1-0.8-1.5-2-1.5c-0.8,0-1.7-0.1-2.5-0.2c-0.5,0-1-0.2-1.5,0
		C126.9,64.2,125.9,64.8,124.9,65.3z M157.1,65.4c0,0,0-0.1,0-0.1c-0.7-0.4-1.5-0.7-2.2-1.2c-0.6-0.4-1.2-0.3-1.8-0.3
		c-1.1,0-2.1,0.1-3.2,0.2c-0.9,0.1-1.6,0.5-1.8,1.4c-0.4,1.4-0.9,2.8-1.3,4.2c-0.3,1.1-0.3,1,0.8,1.1c0.4,0,0.6-0.1,0.8-0.5
		c0.5-1.4,1-2.8,1.6-4.3c0.1-0.2,0.1-0.5,0.5-0.5c1,0,1.9,0,2.9,0C154.6,65.4,155.9,65.4,157.1,65.4z M162.9,57.8c0-1.1,0-2.2,0-3.3
		c0-0.6-0.3-0.9-0.8-0.9c-0.5,0-0.8,0.4-0.8,1c0,2.2,0,4.3,0,6.5c0,0.6,0.4,1,0.8,1c0.5,0,0.8-0.4,0.8-0.9
		C162.9,59.9,162.9,58.9,162.9,57.8z M120.8,57.8c0-1.1,0-2.2,0-3.3c0-0.6-0.3-1-0.8-1c-0.5,0-0.8,0.4-0.8,1c0,2.1,0,4.3,0,6.4
		c0,0.6,0.3,1,0.8,1c0.5,0,0.8-0.4,0.8-1C120.8,59.9,120.8,58.8,120.8,57.8z M161.7,68.2C161.7,68.2,161.7,68.2,161.7,68.2
		c0.2,0,0.3,0,0.5,0c0.4-0.1,0.6-0.3,0.7-0.6c0.1-0.4-0.1-0.7-0.5-0.9c-0.2-0.1-0.4-0.1-0.6-0.1c-2,0-4.1,0-6.1,0
		c-0.1,0-0.3,0-0.4,0c-0.4,0.1-0.8,0.4-0.8,0.7c0,0.5,0.3,0.8,0.8,0.9c0.5,0,0.9,0,1.4,0C158.4,68.2,160.1,68.2,161.7,68.2z
		 M123.3,68.2c1.1,0,2.2,0,3.3,0c0.2,0,0.5,0,0.7-0.2c0.2-0.2,0.4-0.5,0.2-0.9c-0.2-0.4-0.5-0.6-0.9-0.6c-2.1,0-4.3,0-6.4,0
		c-0.6,0-1,0.3-1,0.8c0,0.5,0.3,0.8,1,0.8C121.2,68.2,122.3,68.2,123.3,68.2z M130.7,70.5C130.7,70.5,130.7,70.5,130.7,70.5
		c0,0.7,0,1.4,0,2.2c0,0.3,0.1,0.5,0.5,0.4c0.6,0,1.2,0,1.8,0c0.4,0,0.4-0.2,0.3-0.5c-0.6-1.6-1.2-3.2-1.8-4.8
		c-0.1-0.2-0.4-0.3-0.3-0.6c0-0.2,0-0.5-0.3-0.5c-0.3,0-0.1,0.3-0.2,0.5c0,0,0,0.1,0,0.1C130.7,68.3,130.7,69.4,130.7,70.5z
		 M151.4,70c0.1-0.9-0.1-2,0-3.1c0-0.1,0-0.2-0.1-0.3c-0.1,0-0.2,0.1-0.2,0.2c-0.1,0.4-0.3,0.8-0.4,1.2c-0.7,1.6-1.2,3.2-1.8,4.7
		c-0.1,0.3,0,0.4,0.2,0.4c0.6,0,1.3,0,1.9,0c0.4,0,0.5-0.1,0.5-0.5C151.4,71.8,151.4,71,151.4,70z M121.9,62.1
		c-0.3,0.2-0.4,0.5-0.7,0.6c-0.7,0.3-0.7,0.8-0.6,1.4c0,0.2,0,0.3,0,0.5c0,0.8,0,0.9,0.8,0.8c0.2,0,0.3,0,0.5,0c0.6,0,0.6,0,0.4-0.5
		c-0.1-0.4-0.2-0.8-0.2-1.2C122,63.2,121.9,62.6,121.9,62.1z M132.2,59.5c0,0.7,0,0.8,0.5,0.8c0.6,0,0.9-0.3,0.9-0.8
		c0-0.4-0.4-0.7-0.9-0.7C132.3,58.7,132.2,58.7,132.2,59.5z M128.8,61.4c-0.2,0.1-0.6-0.2-0.6,0.3c0,0.7,0.2,0.9,0.8,1
		c0.4,0,0.5-0.2,0.5-0.5C129.5,61.4,129.5,61.4,128.8,61.4z M152.6,62c0,0.6,0,0.6,0.4,0.6c0.8,0,0.9-0.1,1-0.9
		c0-0.4-0.3-0.3-0.5-0.3C152.6,61.4,152.6,61.4,152.6,62z M135.1,71.9C135.1,71.9,135.1,71.9,135.1,71.9c-0.2,0-0.4,0-0.6,0
		c-0.2,0-0.2,0.1-0.2,0.2c0.1,0.3,0.2,0.6,0.5,0.8c0.3,0.2,0.5,0.1,0.8,0c0.2-0.2,0.4-0.4,0.3-0.8c-0.1-0.3-0.4-0.2-0.6-0.3
		C135.2,71.9,135.2,71.9,135.1,71.9z M147,71.9c-0.1,0-0.2,0-0.3,0c-0.2,0-0.4-0.1-0.5,0.2c-0.1,0.2,0,0.5,0.1,0.7
		c0.3,0.4,0.7,0.4,1,0.1c0.2-0.2,0.5-0.5,0.4-0.8C147.6,71.7,147.2,71.9,147,71.9z M149.6,59.5c-0.1-0.3,0.2-0.8-0.4-0.8
		c-0.4,0-0.8,0.3-0.8,0.7c0,0.4,0.4,0.8,0.8,0.8C149.8,60.2,149.5,59.7,149.6,59.5z"/>
	<path class="st0" d="M143.3,43.3c-1.4,0.9-2.7,0.8-4.1,0.1c-0.1,0.6-0.1,0.6-0.8,0.8c-1.1,0.4-1.9,1.4-1.9,2.6c0,1.6,0,3.3,0,4.9
		c0,0.6-0.3,0.8-0.9,0.7c-0.3-0.1-0.3-0.3-0.3-0.5c0-0.9,0-1.7,0-2.6c0-1.1-0.1-2.1,0.1-3.2c0.3-1.6,1.2-2.6,2.7-3.1
		c0.5-0.1,0.5-0.3,0.2-0.7c-0.9-1.5-0.5-3.2,0.8-4.3c1.1-0.9,3-0.9,4.2,0.1c1.2,1.1,1.5,2.9,0.7,4.3c-0.2,0.4-0.2,0.5,0.2,0.6
		c1.7,0.5,2.8,2,2.8,3.9c0,1.7,0,3.3,0,5c0,0.5-0.3,0.5-0.7,0.5c-0.4,0-0.5-0.1-0.5-0.5c0-1.5,0-3,0-4.5c0-1.8-0.6-2.7-2.3-3.3
		C143.2,43.9,143.3,43.6,143.3,43.3z M141.2,42.8c1.2,0,2.1-0.9,2.1-2.1c0-1.2-0.9-2.1-2.1-2.1c-1.2,0-2.1,0.9-2.1,2.1
		C139,41.8,140,42.7,141.2,42.8z"/>
	<path class="st0" d="M141.2,44c0.9,0,1,0,1,0.9c0.1,1.9,0.3,3.8,0.4,5.6c0,0.3,0,0.6-0.2,0.9c-0.3,0.6-0.7,1.2-1,1.7
		c-0.2,0.3-0.3,0.3-0.5,0c-0.4-0.7-0.8-1.3-1.1-2c-0.2-0.5-0.1-1,0-1.5c0.1-1.6,0.2-3.3,0.4-4.9c0.1-0.8,0-0.8,0.8-0.8
		C141.1,44,141.1,44,141.2,44z M141.2,47.6C141.2,47.6,141.2,47.6,141.2,47.6c-0.1,0.4-0.1,0.9-0.2,1.3c0,0.6-0.1,1.1-0.1,1.7
		c0,0.2,0,0.5,0.2,0.5c0.2,0,0.3-0.3,0.3-0.5c0,0,0,0,0,0C141.4,49.6,141.3,48.6,141.2,47.6z"/>
	<path class="st0" d="M144.6,49.4c0,1.1,0,2.1,0,3.2c0,0.3-0.1,0.6-0.5,0.5c-0.3-0.1-0.7,0.2-0.7-0.5c0-1.5,0-3.1,0-4.7
		c0-0.6,0.1-1.2,0-1.8c0-0.6,0.4-0.5,0.8-0.5c0.4,0,0.4,0.3,0.4,0.5C144.6,47.2,144.6,48.3,144.6,49.4
		C144.6,49.4,144.6,49.4,144.6,49.4z"/>
	<path class="st0" d="M139,49.2c0,1,0,2,0,3c0,0.5-0.2,0.5-0.6,0.5c-0.4,0-0.6-0.1-0.6-0.5c0-1.1,0-2.2,0-3.3c0-0.9,0.1-1.9,0-2.8
		c0-0.5,0.3-0.5,0.6-0.5c0.4,0,0.6,0.1,0.6,0.5C139,47.2,139,48.2,139,49.2C139,49.2,139,49.2,139,49.2z"/>
</g>
<g>
	<path class="st0" d="M221.2,41.4c-0.4-0.1-0.7-0.1-1.1,0c-0.4,0-0.5-0.1-0.5-0.5c0-1,0-1,1-1c0.8,0,1.7,0,2.5,0
		c0.5,0,0.8,0.2,0.8,0.7c0,1.1,0,2.2,0,3.3c0,0.2-0.1,0.4-0.4,0.4c0,0,0,0,0,0c-1.1,0.1-1.1,0.1-1.1-1c0-0.2,0-0.4,0-0.7
		c-0.2-0.1-0.3,0.1-0.4,0.2c-0.9,0.9-1.8,1.8-2.7,2.7c-0.3,0.3-0.3,0.5-0.2,0.8c1.2,4.2-0.9,8.7-4.8,10.5c-0.4,0.2-0.5,0.5-0.3,0.9
		c0.1,0.1,0.2,0.1,0.3,0.1c0.2-0.1,0.4-0.1,0.6-0.2c0.5-0.1,0.8,0,1,0.5c0.5,1.5,1,3.1,1.5,4.6c0.4,1.2,0.7,2.4,1.1,3.6
		c0.4,1.3,0.1,2.6-1,3.2c-1.4,0.8-3.1,0.2-3.6-1.4c-0.5-1.5-0.9-3-1.4-4.5c-0.4-1.2-0.8-2.4-1.1-3.6c-0.3-1-0.2-1.2,0.8-1.5
		c0.3-0.1,0.6-0.1,0.4-0.6c-0.1-0.4-0.3-0.5-0.7-0.4c-3.4,0.6-7.1-1-9-4c-0.3-0.5-0.3-0.5-0.7-0.1c-0.4,0.4-0.8,0.8-1.2,1.2
		c-0.2,0.2-0.4,0.3-0.6,0c-0.9-0.9-0.8-0.7,0-1.5c0.4-0.4,0.9-0.9,1.3-1.3c0.2-0.2,0.3-0.4,0.2-0.7c-0.9-3.3-0.1-6.2,2.2-8.7
		c1.5-1.6,3.3-2.4,5.5-2.7c2.8-0.3,5.2,0.6,7.2,2.5c0.5,0.5,1,1.1,1.3,1.7c0.1,0.2,0.2,0.3,0.4,0.1c0.8-0.9,1.7-1.7,2.6-2.6
		C221.1,41.5,221.2,41.5,221.2,41.4z M210.4,56.2c0.4,0,0.8,0,1.1-0.1c4-0.5,7-4.5,6.3-8.5c0-0.1,0-0.3-0.1-0.4
		c-0.2-0.1-0.2,0.1-0.3,0.2c-1.3,1.3-2.6,2.6-3.9,3.9c-0.6,0.6-0.9,0.6-1.4,0c-1.2-1.2-2.3-2.3-3.5-3.5c-0.3-0.3-0.5-0.3-0.8,0
		c-1.3,1.3-2.5,2.5-3.8,3.8c-0.2,0.2-0.3,0.4-0.1,0.7C205.3,54.8,207.6,56.1,210.4,56.2z M203.1,50.3c0.2-0.1,0.3-0.2,0.4-0.3
		c0.6-0.6,1.1-1.2,1.7-1.7c0.7-0.7,1.5-1.4,2.2-2.1c0.6-0.6,0.9-0.6,1.5,0c1.2,1.2,2.3,2.3,3.5,3.5c0.2,0.2,0.4,0.3,0.6,0
		c1.3-1.3,2.6-2.6,3.9-3.9c0.2-0.2,0.2-0.4,0.1-0.7c-1-1.6-2.3-2.8-4.1-3.4c-3.1-1-5.9-0.2-8.1,2.2c-0.6,0.6-1,1.3-1.3,2.1
		C202.9,47.3,202.8,48.8,203.1,50.3z M216.2,68.4c0.7,0,1.1-0.6,0.9-1.3c-0.3-1-0.6-2-0.9-3c-0.5-1.5-0.9-3-1.4-4.5
		c-0.1-0.3-0.2-0.4-0.5-0.3c-0.4,0.1-0.7,0.2-1.1,0.3c-0.4,0.1-0.5,0.3-0.3,0.6c0.4,1.2,0.8,2.4,1.1,3.6c0.4,1.2,0.7,2.4,1.1,3.6
		C215.4,68.1,215.8,68.4,216.2,68.4z"/>
	<path class="st0" d="M195.5,65.4c0,3.2,0,6.4,0,9.6c0,0.9-0.2,1.1-1.1,1.1c-5.1,0-10.2,0-15.3,0c-1.1,0-1.3-0.2-1.3-1.2
		c0-4.9,0-9.9,0-14.8c0-1.4,0-2.9,0-4.3c0-0.9,0.3-1.2,1.2-1.2c5,0,9.9,0,14.9,0c1.5,0,1.6,0.1,1.6,1.6
		C195.5,59.3,195.5,62.3,195.5,65.4z M186.7,60.2c-2.3,0-4.5,0-6.8,0c-0.4,0-0.6,0.1-0.6,0.6c0,4.5,0,8.9,0,13.4
		c0,0.5,0.1,0.6,0.6,0.6c4.5,0,9,0,13.5,0c0.6,0,0.6,0,0.6-0.6c0-4.5,0-8.9,0-13.4c0-0.4-0.1-0.6-0.6-0.6
		C191.2,60.2,188.9,60.2,186.7,60.2z M186.7,58.7c0.5,0,1,0,1.6,0c0.3,0,0.4-0.1,0.4-0.4c0-0.6,0-1.2,0-1.8c0-0.3-0.1-0.4-0.4-0.4
		c-1,0-2.1,0-3.1,0c-0.3,0-0.4,0.1-0.4,0.4c0,0.6,0,1.2,0,1.8c0,0.3,0.1,0.4,0.4,0.4C185.6,58.7,186.2,58.7,186.7,58.7z M192,58.7
		c0.5,0,1,0,1.6,0c0.3,0,0.4-0.1,0.4-0.4c0-0.6,0-1.2,0-1.8c0-0.3-0.1-0.4-0.4-0.4c-1,0-2.1,0-3.1,0c-0.3,0-0.4,0.1-0.4,0.4
		c0,0.6,0,1.2,0,1.8c0,0.3,0.1,0.4,0.4,0.4C191,58.7,191.5,58.7,192,58.7z M181.2,58.7c0.5,0,1,0,1.6,0c0.3,0,0.4-0.1,0.4-0.4
		c0-0.6,0-1.2,0-1.8c0-0.3-0.1-0.4-0.4-0.4c-1,0-2,0-3,0c-0.3,0-0.4,0.2-0.4,0.4c0,0.6,0,1.1,0,1.7c0,0.3,0.1,0.4,0.5,0.4
		C180.3,58.7,180.7,58.7,181.2,58.7z"/>
	<path class="st0" d="M205.3,33c3.8,0,7.6,0,11.4,0c1,0,1.2,0.2,1.2,1.2c0,2.2,0,4.4,0,6.5c0,0.6,0,0.6-0.6,0.6
		c-0.9,0-0.9,0-0.9-0.9c0-1.8,0-3.6,0-5.4c0-0.6,0-0.6-0.7-0.6c-6.8,0-13.6,0-20.4,0c-0.7,0-0.7,0-0.7,0.6c0,1.9,0,3.7,0,5.6
		c0,0.8-0.2,1-1,1c-1.8,0-3.6,0-5.5,0c-0.7,0-0.8,0-0.8,0.7c0,3.4,0,6.7,0,10.1c0,0.2,0.1,0.6-0.2,0.7c-0.4,0.1-0.8,0.1-1.2,0
		c-0.2-0.1-0.1-0.3-0.1-0.5c0-1.2,0-2.5,0-3.7c0-2.5,0-5.1,0-7.6c0-0.8,0.2-1.4,0.8-2c2.1-2,4.1-4,6.1-6c0.3-0.3,0.6-0.4,1.1-0.4
		C197.6,33,201.5,33,205.3,33z M188.2,40.2c0.1,0.1,0.3,0.1,0.4,0.1c1.4,0,2.7,0,4.1,0c0.4,0,0.5-0.1,0.5-0.5c0-1.4,0-2.8,0-4.2
		c0-0.1,0.1-0.2-0.1-0.3C191.5,36.9,189.8,38.5,188.2,40.2z"/>
	<path class="st0" d="M207.7,74.3c-3,0-6.1,0-9.1,0c-0.7,0-0.7,0-0.7-0.7c0-0.1,0-0.2,0-0.3c0-0.3,0.1-0.4,0.4-0.4
		c1.5,0,3.1,0,4.6,0c4.3,0,8.6,0,12.9,0c0.7,0,0.7,0,0.7-0.6c0-0.5,0-1,0-1.5c0-0.4,0.1-0.5,0.5-0.5c1,0,1-0.2,1,1
		c0,0.7,0,1.5,0,2.2c0,0.7-0.3,0.9-1,0.9C213.8,74.3,210.7,74.3,207.7,74.3z"/>
	<path class="st0" d="M194.8,49c-0.6,0-1.2,0-1.7-0.2c-0.9-0.5-1.4-1.4-1.3-2.4c0.1-0.9,0.8-1.7,1.7-1.9c0.4-0.1,0.7-0.2,0.6-0.7
		c0-0.2,0.1-0.4,0.4-0.4c0.2,0,0.4,0,0.6,0c0.4,0,0.5,0.2,0.5,0.5c-0.1,0.4,0.2,0.5,0.5,0.6c1,0.2,1.6,0.8,1.8,1.8
		c0.1,0.3,0,0.5-0.4,0.5c-0.2,0-0.5,0-0.7,0c-0.1,0-0.3,0-0.3-0.2c-0.1-0.7-0.8-0.7-1.3-0.8c-0.3,0-0.7,0-1,0c-0.6,0-1,0.4-1,0.9
		c0,0.5,0.3,0.8,0.9,0.8c0.5,0,0.9,0,1.4,0c1.5,0.1,2.2,0.8,2.4,2.2c0.2,1.2-0.8,2.2-2,2.5c-0.3,0.1-0.4,0.3-0.3,0.5
		c0,0.4-0.1,0.6-0.6,0.6c-0.1,0-0.3,0-0.4,0c-0.4,0-0.5-0.1-0.5-0.5c0-0.4-0.1-0.5-0.5-0.6c-0.9-0.1-1.7-1-1.8-1.9
		c0-0.3,0-0.5,0.4-0.5c0.2,0,0.4,0,0.6,0c0.3,0,0.4,0.1,0.5,0.3c0.1,0.4,0.4,0.6,0.8,0.6c0.5,0,1,0,1.5,0c0.5,0,0.8-0.3,0.9-0.8
		c0-0.4-0.3-0.8-0.7-0.9C195.5,48.9,195.1,49,194.8,49z"/>
	<path class="st0" d="M202.7,61.1c-0.9,0-1.9,0-2.8,0c-0.4,0-0.5-0.1-0.5-0.5c0-1.1-0.1-1,1-1c1.7,0,3.4,0,5.1,0
		c0.4,0,0.6,0.1,0.6,0.6c0,0.9,0,0.9-0.9,0.9C204.3,61.1,203.5,61.1,202.7,61.1z"/>
	<path class="st0" d="M202.6,67.5c-0.9,0-1.8,0-2.6,0c-0.6,0-0.6,0-0.6-0.6c0-0.9,0-0.9,0.9-0.9c1.7,0,3.4,0,5.1,0
		c0.6,0,0.6,0,0.6,0.6c0,0.9,0,0.9-0.9,0.9C204.3,67.5,203.5,67.5,202.6,67.5z"/>
	<path class="st0" d="M202.2,64.3c-0.7,0-1.5,0-2.2,0c-0.4,0-0.5-0.1-0.5-0.5c0-1.1,0-1,1-1c1.4,0,2.7,0,4.1,0
		c0.4,0,0.6,0.2,0.6,0.6c0,0.9,0,0.9-0.9,0.9C203.5,64.3,202.8,64.3,202.2,64.3z"/>
	<path class="st0" d="M184.1,71.6c-0.3,0-0.7,0-1,0c-1.1-0.1-1.8-1.1-1.6-2.1c0-0.1,0-0.3,0.2-0.3c0.4-0.1,0.7-0.1,1.1,0
		c0.2,0,0.2,0.3,0.2,0.4c0,0.4,0.2,0.5,0.5,0.5c0.4,0,0.9,0,1.3,0c0.3,0,0.4-0.1,0.4-0.4c0-0.5,0-1,0-1.5c0-0.3-0.1-0.4-0.4-0.4
		c-0.4,0-0.7,0-1.1,0c-0.3,0-0.4-0.1-0.4-0.4c0,0,0-0.1,0-0.1c0-1-0.2-1,1-0.9c0.2,0,0.4-0.1,0.6-0.1c0.3,0,0.3-0.1,0.3-0.3
		c0-0.5,0-1,0-1.6c0-0.2-0.1-0.3-0.4-0.3c-0.5,0-1,0-1.5,0c-0.3,0-0.4,0.2-0.3,0.4c0,0.4-0.1,0.5-0.5,0.5c-0.1,0-0.1,0-0.2,0
		c-0.9,0-0.9,0-0.8-1c0.2-0.9,0.7-1.4,1.6-1.4c0.7,0,1.3,0,2,0c0.9,0,1.4,0.6,1.5,1.4c0.1,1,0.2,2-0.1,2.9c0,0.1,0,0.2,0,0.3
		c0.3,0.9,0.2,1.8,0.2,2.7c-0.1,1-0.7,1.5-1.7,1.6C184.7,71.7,184.4,71.6,184.1,71.6C184.1,71.6,184.1,71.6,184.1,71.6z"/>
	<path class="st0" d="M190.6,66.6c0,1,0,2.1,0,3.1c0,0.3,0.1,0.5,0.5,0.5c0.2,0,0.3,0,0.5,0c0.1,0,0.2,0.1,0.3,0.2c0,0.3,0,0.7,0,1
		c0,0.2-0.2,0.2-0.3,0.2c-1.1,0-2.1,0-3.2,0c-0.2,0-0.4-0.1-0.4-0.4c0-0.1,0-0.2,0-0.3c0-0.7-0.1-0.8,0.8-0.8c0.3,0,0.4-0.1,0.4-0.4
		c0-1.1,0.1-2.2-0.1-3.4c0-0.3,0-0.7,0.1-1c0-0.3-0.1-0.4-0.4-0.4c-0.1,0-0.3,0-0.4,0c-0.1,0-0.1,0-0.2,0c-0.3-0.3-0.1-0.8-0.1-1.1
		c0-0.2,0.1-0.3,0.3-0.3c0.5,0.1,0.8-0.1,0.9-0.6c0.1-0.3,0.5-0.5,0.8-0.4c0.3,0.1,0.5,0.4,0.5,0.7
		C190.5,64.4,190.5,65.5,190.6,66.6C190.6,66.6,190.6,66.6,190.6,66.6z"/>
</g>
</svg>
