<svg id="Layer_1" data-name="Layer 1" xmlns="http://www.w3.org/2000/svg" xmlns:xlink="http://www.w3.org/1999/xlink" viewBox="0 0 16 16"><defs><style>.cls-1{fill:url(#linear-gradient);}.cls-2{fill:url(#linear-gradient-2);}.cls-3{fill:url(#linear-gradient-3);}.cls-4{fill:url(#linear-gradient-4);}.cls-5{fill:url(#linear-gradient-5);}.cls-6{fill:url(#linear-gradient-6);}</style><linearGradient id="linear-gradient" x1="-62.42" y1="-607.54" x2="-66.85" y2="-603.23" gradientTransform="translate(-61.83 -600) rotate(180)" gradientUnits="userSpaceOnUse"><stop offset="0" stop-color="#58bbe8"/><stop offset="1" stop-color="#1d6798"/></linearGradient><linearGradient id="linear-gradient-2" x1="12.05" y1="-607.54" x2="7.63" y2="-603.22" gradientTransform="matrix(1, 0, 0, -1, 0, -600)" xlink:href="#linear-gradient"/><linearGradient id="linear-gradient-3" x1="6.32" y1="-601.3" x2="6.32" y2="-603.72" gradientTransform="matrix(1, 0, 0, -1, 0, -600)" gradientUnits="userSpaceOnUse"><stop offset="0" stop-color="#2c84bf"/><stop offset="1" stop-color="#195795"/></linearGradient><linearGradient id="linear-gradient-4" x1="69.83" y1="615.52" x2="65.4" y2="619.84" gradientTransform="translate(-54.42 -607.06)" xlink:href="#linear-gradient"/><linearGradient id="linear-gradient-5" x1="-120.21" y1="615.52" x2="-124.63" y2="619.84" gradientTransform="matrix(-1, 0, 0, 1, -116.26, -607.06)" xlink:href="#linear-gradient"/><linearGradient id="linear-gradient-6" x1="-125.94" y1="621.76" x2="-125.94" y2="619.34" gradientTransform="matrix(-1, 0, 0, 1, -116.26, -607.06)" xlink:href="#linear-gradient-3"/></defs><title>Fibra inn - logo-01</title><path class="cls-1" d="M2.33,3.43C1.61,4.1.44,5.28.15,5.58L2.83,7.71A15.81,15.81,0,0,1,6.32,4.38,7.84,7.84,0,0,0,2.33,3.43Z"/><path class="cls-2" d="M6.32,4.38A16.2,16.2,0,0,1,9.82,7.7L12.5,5.58c-.3-.3-1.47-1.48-2.18-2.16A8,8,0,0,0,6.32,4.38Z"/><path class="cls-3" d="M2.32,3.43a8,8,0,0,1,4,.95,8,8,0,0,1,4-1l-.21-.2A5.8,5.8,0,0,0,6.33,1.47,5.66,5.66,0,0,0,2.54,3.21l-.17.16Z"/><path class="cls-4" d="M13.67,12.57c.72-.67,1.89-1.85,2.18-2.15L13.17,8.3a15.83,15.83,0,0,1-3.49,3.32A7.84,7.84,0,0,0,13.67,12.57Z"/><path class="cls-5" d="M9.68,11.62A16.45,16.45,0,0,1,6.18,8.3L3.5,10.42c.3.3,1.47,1.48,2.18,2.16A8,8,0,0,0,9.68,11.62Z"/><path class="cls-6" d="M13.68,12.57a7.94,7.94,0,0,1-4-1,7.91,7.91,0,0,1-4,1l.21.21a5.8,5.8,0,0,0,3.78,1.75,5.66,5.66,0,0,0,3.79-1.74l.17-.16Z"/></svg>