<svg xmlns="http://www.w3.org/2000/svg" viewBox="0 0 883.64 92.63"><g id="Layer_2" data-name="Layer 2"><g id="Capa_1" data-name="Capa 1"><path d="M120.9,92.63H108.68V0H120.9Z"/><path d="M564.75,0l23.79,67.18L612.21,0h25.06V92.63H618.12V67.31L620,23.6l-25,69h-13.1L557,23.66l1.91,43.65V92.63H539.81V0Z"/><path d="M760,15.46H731.62V92.63H712.53V15.46h-28V0H760Z"/><path d="M843.49,41.73,862.77,0h20.87L853.23,59V92.63H833.82V59L803.41,0h20.93Z"/><polygon points="0 0 0 92.63 12.21 92.63 12.21 9.99 57.38 9.99 57.38 0 0 0"/><rect x="21.96" y="41.73" width="29.12" height="9.99"/><path d="M237.81,51.88a21.45,21.45,0,0,0-11.87-8A24,24,0,0,0,236,36.17a18.83,18.83,0,0,0,3.69-11.49q0-12.21-7.61-18.45T209.4,0H179.12V92.63h32.13q14.76,0,22.84-7.13t8.08-19.59A23,23,0,0,0,237.81,51.88ZM225,78.22Q220,82.65,211.5,82.64H191.34V10H209.4q9.1,0,13.55,3.47t4.46,11.13a13.45,13.45,0,0,1-4.81,10.9q-4.8,4-12.81,4h-8.71V49.3h10.61q18.19,0,18.2,16.73Q229.89,73.8,225,78.22Z"/><path d="M341.8,52.55a27.87,27.87,0,0,0,13-9.61,24.92,24.92,0,0,0,4.68-15.08q0-13.6-8.43-20.74T327,0H296.31V92.63h12.28V10h18.7q9.68.06,14.8,4.65t5.12,13.19q0,7.91-5.38,12.62t-14.47,4.72h-9v10h12l20.1,37.47h13.11v-.77Z"/><polygon points="455.61 0 444.93 0 409.56 92.63 422.15 92.63 450.27 15.08 466.05 58.4 444.1 58.4 444.1 68.39 469.67 68.39 478.52 92.63 491.05 92.63 455.61 0"/></g></g></svg>